<svg width="3405" height="1984" xmlns="http://www.w3.org/2000/svg" xmlns:xlink="http://www.w3.org/1999/xlink" xml:space="preserve" overflow="hidden"><defs><clipPath id="clip0"><rect x="9556" y="1924" width="3405" height="1984"/></clipPath><clipPath id="clip1"><rect x="9556" y="1628" width="798" height="1541"/></clipPath><clipPath id="clip2"><rect x="12737" y="2235" width="222" height="771"/></clipPath><clipPath id="clip3"><rect x="12737" y="2735" width="222" height="771"/></clipPath><clipPath id="clip4"><rect x="12737" y="3234" width="222" height="771"/></clipPath><clipPath id="clip5"><rect x="12737" y="3412" width="222" height="771"/></clipPath></defs><g clip-path="url(#clip0)" transform="translate(-9556 -1924)"><path d="M10353.9 1947.07 10353.9 3864.74" stroke="#000000" stroke-width="4.58333" stroke-linejoin="round" stroke-miterlimit="10" fill="none" fill-rule="evenodd"/><path d="M12737.8 1947.07 12737.8 3864.74" stroke="#000000" stroke-width="4.58333" stroke-linejoin="round" stroke-miterlimit="10" fill="none" fill-rule="evenodd"/><path d="M9556.4 2286.24 12958.4 2286.24" stroke="#000000" stroke-width="4.58333" stroke-linejoin="round" stroke-miterlimit="10" fill="none" fill-rule="evenodd"/><path d="M9556.4 1949.36 12958.4 1949.36" stroke="#000000" stroke-width="4.58333" stroke-linejoin="round" stroke-miterlimit="10" fill="none" fill-rule="evenodd"/><path d="M9556.4 3862.45 12958.4 3862.45" stroke="#000000" stroke-width="4.58333" stroke-linejoin="round" stroke-miterlimit="10" fill="none" fill-rule="evenodd"/><g><text font-family="Helvetica,Helvetica_MSFontService,sans-serif" font-weight="700" font-size="92" transform="matrix(1 0 0 1 12748.4 2040)">SQA</text></g><text font-family="Helvetica,Helvetica_MSFontService,sans-serif" font-weight="700" font-size="92" transform="matrix(1 0 0 1 11367.1 2040)">ScanQA</text><text font-family="Helvetica,Helvetica_MSFontService,sans-serif" font-weight="700" font-size="92" transform="matrix(1 0 0 1 9791.02 2152)">Method</text><g><text font-family="Helvetica,Helvetica_MSFontService,sans-serif" font-weight="400" font-size="92" transform="matrix(1 0 0 1 12774.5 2208)">test</text></g><text font-family="Helvetica,Helvetica_MSFontService,sans-serif" font-weight="400" font-size="92" transform="matrix(1 0 0 1 10872.4 2152)">(test w/ objects / test w/o objects)</text><text font-family="Helvetica,Helvetica_MSFontService,sans-serif" font-weight="400" font-size="92" transform="matrix(1 0 0 1 12414.2 2264)">CIDEr</text><g><text font-family="Helvetica,Helvetica_MSFontService,sans-serif" font-weight="400" font-size="92" transform="matrix(1 0 0 1 11945.6 2264)">METEOR</text></g><g><text font-family="Helvetica,Helvetica_MSFontService,sans-serif" font-weight="400" font-size="92" transform="matrix(1 0 0 1 11576.4 2264)">ROUGE</text></g><g><text font-family="Helvetica,Helvetica_MSFontService,sans-serif" font-weight="400" font-size="92" transform="matrix(1 0 0 1 11186.5 2264)">BLEU</text></g><text font-family="Helvetica,Helvetica_MSFontService,sans-serif" font-weight="400" font-size="92" transform="matrix(1 0 0 1 11426.5 2264)">-</text><g><text font-family="Helvetica,Helvetica_MSFontService,sans-serif" font-weight="400" font-size="92" transform="matrix(1 0 0 1 11456.9 2264)">4</text></g><g><text font-family="Helvetica,Helvetica_MSFontService,sans-serif" font-weight="400" font-size="92" transform="matrix(1 0 0 1 10789.2 2264)">BLEU</text></g><text font-family="Helvetica,Helvetica_MSFontService,sans-serif" font-weight="400" font-size="92" transform="matrix(1 0 0 1 11029.2 2264)">-</text><g><text font-family="Helvetica,Helvetica_MSFontService,sans-serif" font-weight="400" font-size="92" transform="matrix(1 0 0 1 11059.6 2264)">1</text></g><text font-family="Helvetica,Helvetica_MSFontService,sans-serif" font-weight="400" font-size="92" transform="matrix(1 0 0 1 10411.9 2264)">EM@1</text><text font-family="DengXian,DengXian_MSFontService,sans-serif" font-weight="400" font-size="92" transform="matrix(1 0 0 1 12825.2 2425)">-</text><g><text font-family="Helvetica,Helvetica_MSFontService,sans-serif" font-weight="400" font-size="92" transform="matrix(1 0 0 1 12348.3 2432)">67.3/60.2</text></g><g><text font-family="Helvetica,Helvetica_MSFontService,sans-serif" font-weight="400" font-size="92" transform="matrix(1 0 0 1 11951 2432)">13.6/12.6</text></g><g><text font-family="Helvetica,Helvetica_MSFontService,sans-serif" font-weight="400" font-size="92" transform="matrix(1 0 0 1 11553.7 2432)">34.3/31.1</text></g><g><text font-family="Helvetica,Helvetica_MSFontService,sans-serif" font-weight="400" font-size="92" transform="matrix(1 0 0 1 11156.4 2432)">12.0/10.8</text></g><g><text font-family="Helvetica,Helvetica_MSFontService,sans-serif" font-weight="400" font-size="92" transform="matrix(1 0 0 1 10759.1 2432)">31.6/30.7</text></g><g><text font-family="Helvetica,Helvetica_MSFontService,sans-serif" font-weight="400" font-size="92" transform="matrix(1 0 0 1 10361.8 2432)">23.5/20.9</text></g><g><text font-family="Helvetica,Helvetica_MSFontService,sans-serif" font-weight="400" font-size="92" transform="matrix(1 0 0 1 9563.29 2377)">ScanQA</text></g><g clip-path="url(#clip1)"><text font-family="Helvetica,Helvetica_MSFontService,sans-serif" font-weight="400" font-size="92" transform="matrix(1 0 0 1 9929.95 2377)">(Azuma et </text></g><text font-family="Helvetica,Helvetica_MSFontService,sans-serif" font-weight="400" font-size="92" transform="matrix(1 0 0 1 9776.98 2487)">al. 2022)</text><g clip-path="url(#clip2)"><text font-family="Helvetica,Helvetica_MSFontService,sans-serif" font-weight="400" font-size="92" transform="matrix(1 0 0 1 12759 2654)">47.2 </text></g><text font-family="DengXian,DengXian_MSFontService,sans-serif" font-weight="400" font-size="92" transform="matrix(1 0 0 1 12516.2 2647)">-</text><text font-family="DengXian,DengXian_MSFontService,sans-serif" font-weight="400" font-size="92" transform="matrix(1 0 0 1 12118.9 2647)">-</text><text font-family="DengXian,DengXian_MSFontService,sans-serif" font-weight="400" font-size="92" transform="matrix(1 0 0 1 11721.6 2647)">-</text><text font-family="DengXian,DengXian_MSFontService,sans-serif" font-weight="400" font-size="92" transform="matrix(1 0 0 1 11324.3 2647)">-</text><text font-family="DengXian,DengXian_MSFontService,sans-serif" font-weight="400" font-size="92" transform="matrix(1 0 0 1 10927 2647)">-</text><text font-family="DengXian,DengXian_MSFontService,sans-serif" font-weight="400" font-size="92" transform="matrix(1 0 0 1 10529.7 2647)">-</text><text font-family="Helvetica,Helvetica_MSFontService,sans-serif" font-weight="400" font-size="92" transform="matrix(1 0 0 1 9655.24 2599)">SQA (Ma et al. </text><text font-family="Helvetica,Helvetica_MSFontService,sans-serif" font-weight="400" font-size="92" transform="matrix(1 0 0 1 9838 2709)">2022)</text><text font-family="DengXian,DengXian_MSFontService,sans-serif" font-weight="400" font-size="92" transform="matrix(1 0 0 1 12825.2 2869)">-</text><g><text font-family="Helvetica,Helvetica_MSFontService,sans-serif" font-weight="400" font-size="92" transform="matrix(1 0 0 1 12348.3 2876)">69.5/62.8</text></g><g><text font-family="Helvetica,Helvetica_MSFontService,sans-serif" font-weight="400" font-size="92" transform="matrix(1 0 0 1 11951 2876)">13.9/13.3</text></g><g><text font-family="Helvetica,Helvetica_MSFontService,sans-serif" font-weight="400" font-size="92" transform="matrix(1 0 0 1 11553.7 2876)">35.2/32.4</text></g><g><text font-family="Helvetica,Helvetica_MSFontService,sans-serif" font-weight="400" font-size="92" transform="matrix(1 0 0 1 11156.4 2876)">14.6/11.7</text></g><g><text font-family="Helvetica,Helvetica_MSFontService,sans-serif" font-weight="400" font-size="92" transform="matrix(1 0 0 1 10759.1 2876)">32.7/32.7</text></g><g><text font-family="Helvetica,Helvetica_MSFontService,sans-serif" font-weight="400" font-size="92" transform="matrix(1 0 0 1 10361.8 2876)">23.9/21.4</text></g><text font-family="Helvetica,Helvetica_MSFontService,sans-serif" font-weight="400" font-size="92" transform="matrix(1 0 0 1 9690.18 2821)">CLIP</text><text font-family="Helvetica,Helvetica_MSFontService,sans-serif" font-weight="400" font-size="92" transform="matrix(1 0 0 1 9894.13 2821)">-</text><text font-family="Helvetica,Helvetica_MSFontService,sans-serif" font-weight="400" font-size="92" transform="matrix(1 0 0 1 9924.5 2821)">Guided </text><g><text font-family="Helvetica,Helvetica_MSFontService,sans-serif" font-weight="400" font-size="92" transform="matrix(1 0 0 1 9570.73 2931)">(Parelli et al. 2023)</text></g><g clip-path="url(#clip3)"><text font-family="Helvetica,Helvetica_MSFontService,sans-serif" font-weight="400" font-size="92" transform="matrix(1 0 0 1 12759 3153)">48.0 </text></g><g><text font-family="Helvetica,Helvetica_MSFontService,sans-serif" font-weight="400" font-size="92" transform="matrix(1 0 0 1 12348.3 3153)">68.7/63.2</text></g><g><text font-family="Helvetica,Helvetica_MSFontService,sans-serif" font-weight="400" font-size="92" transform="matrix(1 0 0 1 11951 3153)">14.0/13.4</text></g><g><text font-family="Helvetica,Helvetica_MSFontService,sans-serif" font-weight="400" font-size="92" transform="matrix(1 0 0 1 11553.7 3153)">35.5/32.6</text></g><g><text font-family="Helvetica,Helvetica_MSFontService,sans-serif" font-weight="400" font-size="92" transform="matrix(1 0 0 1 11156.4 3153)">12.7/12.9</text></g><g><text font-family="Helvetica,Helvetica_MSFontService,sans-serif" font-weight="400" font-size="92" transform="matrix(1 0 0 1 10759.1 3153)">32.6/32.7</text></g><g><text font-family="Helvetica,Helvetica_MSFontService,sans-serif" font-weight="400" font-size="92" transform="matrix(1 0 0 1 10361.8 3153)">24.0/21.5</text></g><text font-family="Helvetica,Helvetica_MSFontService,sans-serif" font-weight="400" font-size="92" transform="matrix(1 0 0 1 9741.18 3043)">Multi</text><text font-family="Helvetica,Helvetica_MSFontService,sans-serif" font-weight="400" font-size="92" transform="matrix(1 0 0 1 9934.82 3043)">-</text><text font-family="Helvetica,Helvetica_MSFontService,sans-serif" font-weight="400" font-size="92" transform="matrix(1 0 0 1 9965.19 3043)">CLIP </text><text font-family="Helvetica,Helvetica_MSFontService,sans-serif" font-weight="400" font-size="92" transform="matrix(1 0 0 1 9664.98 3153)">(Delitzas et al. </text><text font-family="Helvetica,Helvetica_MSFontService,sans-serif" font-weight="400" font-size="92" transform="matrix(1 0 0 1 9838 3263)">2023)</text><text font-family="DengXian,DengXian_MSFontService,sans-serif" font-weight="400" font-size="92" transform="matrix(1 0 0 1 12825.2 3424)">-</text><g><text font-family="Helvetica,Helvetica_MSFontService,sans-serif" font-weight="400" font-size="92" transform="matrix(1 0 0 1 12348.3 3431)">70.2/63.4</text></g><g><text font-family="Helvetica,Helvetica_MSFontService,sans-serif" font-weight="400" font-size="92" transform="matrix(1 0 0 1 11951 3431)">14.2/13.1</text></g><g><text font-family="Helvetica,Helvetica_MSFontService,sans-serif" font-weight="400" font-size="92" transform="matrix(1 0 0 1 11553.7 3431)">36.0/31.8</text></g><g><text font-family="Helvetica,Helvetica_MSFontService,sans-serif" font-weight="400" font-size="92" transform="matrix(1 0 0 1 11156.4 3431)">11.2/15.8</text></g><g><text font-family="Helvetica,Helvetica_MSFontService,sans-serif" font-weight="400" font-size="92" transform="matrix(1 0 0 1 10759.1 3431)">33.2/31.5</text></g><g><text font-family="Helvetica,Helvetica_MSFontService,sans-serif" font-weight="400" font-size="92" transform="matrix(1 0 0 1 10361.8 3431)">24.6/21.6</text></g><g><text font-family="Helvetica,Helvetica_MSFontService,sans-serif" font-weight="400" font-size="92" transform="matrix(1 0 0 1 9611.41 3376)">3D VLP(Jin et al. </text></g><text font-family="Helvetica,Helvetica_MSFontService,sans-serif" font-weight="400" font-size="92" transform="matrix(1 0 0 1 9837.99 3486)">2023)</text><g clip-path="url(#clip4)"><text font-family="Helvetica,Helvetica_MSFontService,sans-serif" font-weight="400" font-size="92" transform="matrix(1 0 0 1 12759 3653)">48.5 </text></g><g><text font-family="Helvetica,Helvetica_MSFontService,sans-serif" font-weight="400" font-size="92" transform="matrix(1 0 0 1 12348.3 3653)">76.6/62.6</text></g><g><text font-family="Helvetica,Helvetica_MSFontService,sans-serif" font-weight="400" font-size="92" transform="matrix(1 0 0 1 11951 3653)">15.2/12.9</text></g><g><text font-family="Helvetica,Helvetica_MSFontService,sans-serif" font-weight="400" font-size="92" transform="matrix(1 0 0 1 11553.7 3653)">38.6/32.8</text></g><g><text font-family="Helvetica,Helvetica_MSFontService,sans-serif" font-weight="400" font-size="92" transform="matrix(1 0 0 1 11156.4 3653)">16.0/11.9</text></g><text font-family="DengXian,DengXian_MSFontService,sans-serif" font-weight="400" font-size="92" transform="matrix(1 0 0 1 10927 3646)">-</text><g><text font-family="Helvetica,Helvetica_MSFontService,sans-serif" font-weight="400" font-size="92" transform="matrix(1 0 0 1 10361.8 3653)">27.0/23.0</text></g><g><text font-family="Helvetica,Helvetica_MSFontService,sans-serif" font-weight="400" font-size="92" transform="matrix(1 0 0 1 9601.1 3598)">3D</text></g><text font-family="Helvetica,Helvetica_MSFontService,sans-serif" font-weight="400" font-size="92" transform="matrix(1 0 0 1 9718.55 3598)">-</text><g><text font-family="Helvetica,Helvetica_MSFontService,sans-serif" font-weight="400" font-size="92" transform="matrix(1 0 0 1 9748.91 3598)">VisTA (Zhu et </text></g><text font-family="Helvetica,Helvetica_MSFontService,sans-serif" font-weight="400" font-size="92" transform="matrix(1 0 0 1 9776.98 3708)">al. 2023)</text><g clip-path="url(#clip5)"><text font-family="Helvetica,Helvetica_MSFontService,sans-serif" font-weight="700" font-size="92" transform="matrix(1 0 0 1 12759 3830)">52.9 </text></g><g><text font-family="Helvetica,Helvetica_MSFontService,sans-serif" font-weight="700" font-size="92" transform="matrix(1 0 0 1 12348.3 3830)">83.8/79.3</text></g><g><text font-family="Helvetica,Helvetica_MSFontService,sans-serif" font-weight="700" font-size="92" transform="matrix(1 0 0 1 11951 3830)">16.5/15.6</text></g><g><text font-family="Helvetica,Helvetica_MSFontService,sans-serif" font-weight="700" font-size="92" transform="matrix(1 0 0 1 11553.7 3830)">43.3/41.2</text></g><g><text font-family="Helvetica,Helvetica_MSFontService,sans-serif" font-weight="700" font-size="92" transform="matrix(1 0 0 1 11156.4 3830)">24.0/17.7</text></g><g><text font-family="Helvetica,Helvetica_MSFontService,sans-serif" font-weight="700" font-size="92" transform="matrix(1 0 0 1 10759.1 3830)">34.5/34.4</text></g><g><text font-family="Helvetica,Helvetica_MSFontService,sans-serif" font-weight="700" font-size="92" transform="matrix(1 0 0 1 10361.8 3830)">31.3/30.8</text></g><text font-family="Helvetica,Helvetica_MSFontService,sans-serif" font-weight="400" font-size="92" transform="matrix(1 0 0 1 9856.05 3830)">Ours</text></g></svg>