<svg width="5030" height="1335" xmlns="http://www.w3.org/2000/svg" xmlns:xlink="http://www.w3.org/1999/xlink" xml:space="preserve" overflow="hidden"><g transform="translate(2177 -4225)"><path d="M-823.058 4248.64-823.058 5517.32" stroke="#000000" stroke-width="4.58333" stroke-linejoin="round" stroke-miterlimit="10" fill="none" fill-rule="evenodd"/><path d="M2539.31 4248.64 2539.31 5517.32" stroke="#000000" stroke-width="4.58333" stroke-linejoin="round" stroke-miterlimit="10" fill="none" fill-rule="evenodd"/><path d="M-2176.86 4587.81 2850.56 4587.81" stroke="#000000" stroke-width="4.58333" stroke-linejoin="round" stroke-miterlimit="10" fill="none" fill-rule="evenodd"/><path d="M-2176.86 4250.94 2850.56 4250.94" stroke="#000000" stroke-width="4.58333" stroke-linejoin="round" stroke-miterlimit="10" fill="none" fill-rule="evenodd"/><path d="M-2176.86 5515.03 2850.56 5515.03" stroke="#000000" stroke-width="4.58333" stroke-linejoin="round" stroke-miterlimit="10" fill="none" fill-rule="evenodd"/><text font-family="Helvetica,Helvetica_MSFontService,sans-serif" font-weight="700" font-size="92" transform="matrix(1 0 0 1 2595.25 4341)">SQA</text><text font-family="Helvetica,Helvetica_MSFontService,sans-serif" font-weight="700" font-size="92" transform="matrix(1 0 0 1 679.376 4341)">ScanQA</text><text font-family="Helvetica,Helvetica_MSFontService,sans-serif" font-weight="700" font-size="92" transform="matrix(1 0 0 1 -1664.1 4454)">Method</text><text font-family="Helvetica,Helvetica_MSFontService,sans-serif" font-weight="400" font-size="92" transform="matrix(1 0 0 1 2621.32 4510)">test</text><text font-family="Helvetica,Helvetica_MSFontService,sans-serif" font-weight="400" font-size="92" transform="matrix(1 0 0 1 184.662 4454)">(test w/ objects / test w/o objects)</text><text font-family="Helvetica,Helvetica_MSFontService,sans-serif" font-weight="400" font-size="92" transform="matrix(1 0 0 1 2134.22 4566)">CIDEr</text><text font-family="Helvetica,Helvetica_MSFontService,sans-serif" font-weight="400" font-size="92" transform="matrix(1 0 0 1 1502.49 4566)">METEOR</text><text font-family="Helvetica,Helvetica_MSFontService,sans-serif" font-weight="400" font-size="92" transform="matrix(1 0 0 1 970.172 4566)">ROUGE</text><text font-family="Helvetica,Helvetica_MSFontService,sans-serif" font-weight="400" font-size="92" transform="matrix(1 0 0 1 417.225 4566)">BLEU</text><text font-family="Helvetica,Helvetica_MSFontService,sans-serif" font-weight="400" font-size="92" transform="matrix(1 0 0 1 657.277 4566)">-</text><text font-family="Helvetica,Helvetica_MSFontService,sans-serif" font-weight="400" font-size="92" transform="matrix(1 0 0 1 687.642 4566)">4</text><text font-family="Helvetica,Helvetica_MSFontService,sans-serif" font-weight="400" font-size="92" transform="matrix(1 0 0 1 -143.169 4566)">BLEU</text><text font-family="Helvetica,Helvetica_MSFontService,sans-serif" font-weight="400" font-size="92" transform="matrix(1 0 0 1 96.8828 4566)">-</text><text font-family="Helvetica,Helvetica_MSFontService,sans-serif" font-weight="400" font-size="92" transform="matrix(1 0 0 1 127.247 4566)">1</text><text font-family="Helvetica,Helvetica_MSFontService,sans-serif" font-weight="400" font-size="92" transform="matrix(1 0 0 1 -683.512 4566)">EM@1</text><text font-family="DengXian,DengXian_MSFontService,sans-serif" font-weight="400" font-size="92" transform="matrix(1 0 0 1 2672.02 4681)">-</text><text font-family="Helvetica,Helvetica_MSFontService,sans-serif" font-weight="400" font-size="92" transform="matrix(1 0 0 1 2068.33 4688)">67.3/60.2</text><text font-family="Helvetica,Helvetica_MSFontService,sans-serif" font-weight="400" font-size="92" transform="matrix(1 0 0 1 1507.94 4688)">13.6/12.6</text><text font-family="Helvetica,Helvetica_MSFontService,sans-serif" font-weight="400" font-size="92" transform="matrix(1 0 0 1 947.542 4688)">34.3/31.1</text><text font-family="Helvetica,Helvetica_MSFontService,sans-serif" font-weight="400" font-size="92" transform="matrix(1 0 0 1 387.147 4688)">12.0/10.8</text><text font-family="Helvetica,Helvetica_MSFontService,sans-serif" font-weight="400" font-size="92" transform="matrix(1 0 0 1 -173.247 4688)">31.6/30.7</text><text font-family="Helvetica,Helvetica_MSFontService,sans-serif" font-weight="400" font-size="92" transform="matrix(1 0 0 1 -733.642 4688)">23.5/20.9</text><text font-family="Helvetica,Helvetica_MSFontService,sans-serif" font-weight="400" font-size="92" transform="matrix(1 0 0 1 -2082.61 4688)">ScanQA</text><text font-family="Helvetica,Helvetica_MSFontService,sans-serif" font-weight="400" font-size="92" transform="matrix(1 0 0 1 -1715.95 4688)">(Azuma et al. 2022)</text><g><text font-family="Helvetica,Helvetica_MSFontService,sans-serif" font-weight="400" font-size="92" transform="matrix(1 0 0 1 2605.85 4821)">47.2 </text></g><text font-family="DengXian,DengXian_MSFontService,sans-serif" font-weight="400" font-size="92" transform="matrix(1 0 0 1 2236.19 4814)">-</text><text font-family="DengXian,DengXian_MSFontService,sans-serif" font-weight="400" font-size="92" transform="matrix(1 0 0 1 1675.8 4814)">-</text><text font-family="DengXian,DengXian_MSFontService,sans-serif" font-weight="400" font-size="92" transform="matrix(1 0 0 1 1115.41 4814)">-</text><text font-family="DengXian,DengXian_MSFontService,sans-serif" font-weight="400" font-size="92" transform="matrix(1 0 0 1 555.012 4814)">-</text><text font-family="DengXian,DengXian_MSFontService,sans-serif" font-weight="400" font-size="92" transform="matrix(1 0 0 1 -5.38288 4814)">-</text><text font-family="DengXian,DengXian_MSFontService,sans-serif" font-weight="400" font-size="92" transform="matrix(1 0 0 1 -565.777 4814)">-</text><text font-family="Helvetica,Helvetica_MSFontService,sans-serif" font-weight="400" font-size="92" transform="matrix(1 0 0 1 -1929.65 4821)">SQA (Ma et al. 2022)</text><text font-family="DengXian,DengXian_MSFontService,sans-serif" font-weight="400" font-size="92" transform="matrix(1 0 0 1 2672.02 4946)">-</text><text font-family="Helvetica,Helvetica_MSFontService,sans-serif" font-weight="400" font-size="92" transform="matrix(1 0 0 1 2068.33 4953)">69.5/62.8</text><text font-family="Helvetica,Helvetica_MSFontService,sans-serif" font-weight="400" font-size="92" transform="matrix(1 0 0 1 1507.94 4953)">13.9/13.3</text><text font-family="Helvetica,Helvetica_MSFontService,sans-serif" font-weight="400" font-size="92" transform="matrix(1 0 0 1 947.542 4953)">35.2/32.4</text><text font-family="Helvetica,Helvetica_MSFontService,sans-serif" font-weight="400" font-size="92" transform="matrix(1 0 0 1 387.147 4953)">14.6/11.7</text><text font-family="Helvetica,Helvetica_MSFontService,sans-serif" font-weight="400" font-size="92" transform="matrix(1 0 0 1 -173.247 4953)">32.7/32.7</text><text font-family="Helvetica,Helvetica_MSFontService,sans-serif" font-weight="400" font-size="92" transform="matrix(1 0 0 1 -733.642 4953)">23.9/21.4</text><g><text font-family="Helvetica,Helvetica_MSFontService,sans-serif" font-weight="400" font-size="92" transform="matrix(1 0 0 1 -2161.96 4953)">CLIP</text></g><text font-family="Helvetica,Helvetica_MSFontService,sans-serif" font-weight="400" font-size="92" transform="matrix(1 0 0 1 -1958.01 4953)">-</text><g><text font-family="Helvetica,Helvetica_MSFontService,sans-serif" font-weight="400" font-size="92" transform="matrix(1 0 0 1 -1927.64 4953)">Guided (Parelli et al. 2023)</text></g><g><text font-family="Helvetica,Helvetica_MSFontService,sans-serif" font-weight="400" font-size="92" transform="matrix(1 0 0 1 2605.85 5086)">48.0 </text></g><text font-family="Helvetica,Helvetica_MSFontService,sans-serif" font-weight="400" font-size="92" transform="matrix(1 0 0 1 2068.33 5086)">68.7/63.2</text><text font-family="Helvetica,Helvetica_MSFontService,sans-serif" font-weight="400" font-size="92" transform="matrix(1 0 0 1 1507.94 5086)">14.0/13.4</text><text font-family="Helvetica,Helvetica_MSFontService,sans-serif" font-weight="400" font-size="92" transform="matrix(1 0 0 1 947.542 5086)">35.5/32.6</text><text font-family="Helvetica,Helvetica_MSFontService,sans-serif" font-weight="400" font-size="92" transform="matrix(1 0 0 1 387.147 5086)">12.7/12.9</text><text font-family="Helvetica,Helvetica_MSFontService,sans-serif" font-weight="400" font-size="92" transform="matrix(1 0 0 1 -173.247 5086)">32.6/32.7</text><text font-family="Helvetica,Helvetica_MSFontService,sans-serif" font-weight="400" font-size="92" transform="matrix(1 0 0 1 -733.642 5086)">24.0/21.5</text><g><text font-family="Helvetica,Helvetica_MSFontService,sans-serif" font-weight="400" font-size="92" transform="matrix(1 0 0 1 -2146.5 5086)">Multi</text></g><text font-family="Helvetica,Helvetica_MSFontService,sans-serif" font-weight="400" font-size="92" transform="matrix(1 0 0 1 -1952.85 5086)">-</text><g><text font-family="Helvetica,Helvetica_MSFontService,sans-serif" font-weight="400" font-size="92" transform="matrix(1 0 0 1 -1922.48 5086)">CLIP (Delitzas et al. 2023)</text></g><text font-family="DengXian,DengXian_MSFontService,sans-serif" font-weight="400" font-size="92" transform="matrix(1 0 0 1 2672.02 5211)">-</text><text font-family="Helvetica,Helvetica_MSFontService,sans-serif" font-weight="400" font-size="92" transform="matrix(1 0 0 1 2068.33 5218)">70.2/63.4</text><text font-family="Helvetica,Helvetica_MSFontService,sans-serif" font-weight="400" font-size="92" transform="matrix(1 0 0 1 1507.94 5218)">14.2/13.1</text><text font-family="Helvetica,Helvetica_MSFontService,sans-serif" font-weight="400" font-size="92" transform="matrix(1 0 0 1 947.542 5218)">36.0/31.8</text><text font-family="Helvetica,Helvetica_MSFontService,sans-serif" font-weight="400" font-size="92" transform="matrix(1 0 0 1 387.147 5218)">11.2/15.8</text><text font-family="Helvetica,Helvetica_MSFontService,sans-serif" font-weight="400" font-size="92" transform="matrix(1 0 0 1 -173.247 5218)">33.2/31.5</text><text font-family="Helvetica,Helvetica_MSFontService,sans-serif" font-weight="400" font-size="92" transform="matrix(1 0 0 1 -733.642 5218)">24.6/21.6</text><text font-family="Helvetica,Helvetica_MSFontService,sans-serif" font-weight="400" font-size="92" transform="matrix(1 0 0 1 -1973.47 5218)">3D VLP(Jin et al. 2023)</text><g><text font-family="Helvetica,Helvetica_MSFontService,sans-serif" font-weight="400" font-size="92" transform="matrix(1 0 0 1 2605.85 5350)">48.5 </text></g><text font-family="Helvetica,Helvetica_MSFontService,sans-serif" font-weight="400" font-size="92" transform="matrix(1 0 0 1 2068.33 5350)">76.6/62.6</text><text font-family="Helvetica,Helvetica_MSFontService,sans-serif" font-weight="400" font-size="92" transform="matrix(1 0 0 1 1507.94 5350)">15.2/12.9</text><text font-family="Helvetica,Helvetica_MSFontService,sans-serif" font-weight="400" font-size="92" transform="matrix(1 0 0 1 947.542 5350)">38.6/32.8</text><text font-family="Helvetica,Helvetica_MSFontService,sans-serif" font-weight="400" font-size="92" transform="matrix(1 0 0 1 387.147 5350)">16.0/11.9</text><text font-family="DengXian,DengXian_MSFontService,sans-serif" font-weight="400" font-size="92" transform="matrix(1 0 0 1 -5.38288 5343)">-</text><text font-family="Helvetica,Helvetica_MSFontService,sans-serif" font-weight="400" font-size="92" transform="matrix(1 0 0 1 -733.642 5350)">27.0/23.0</text><text font-family="Helvetica,Helvetica_MSFontService,sans-serif" font-weight="400" font-size="92" transform="matrix(1 0 0 1 -2044.8 5350)">3D</text><text font-family="Helvetica,Helvetica_MSFontService,sans-serif" font-weight="400" font-size="92" transform="matrix(1 0 0 1 -1927.35 5350)">-</text><text font-family="Helvetica,Helvetica_MSFontService,sans-serif" font-weight="400" font-size="92" transform="matrix(1 0 0 1 -1896.99 5350)">VisTA (Zhu et al. 2023)</text><g><text font-family="Helvetica,Helvetica_MSFontService,sans-serif" font-weight="700" font-size="92" transform="matrix(1 0 0 1 2605.85 5483)">52.9 </text></g><text font-family="Helvetica,Helvetica_MSFontService,sans-serif" font-weight="700" font-size="92" transform="matrix(1 0 0 1 2068.33 5483)">83.8/79.3</text><text font-family="Helvetica,Helvetica_MSFontService,sans-serif" font-weight="700" font-size="92" transform="matrix(1 0 0 1 1507.94 5483)">16.5/15.6</text><text font-family="Helvetica,Helvetica_MSFontService,sans-serif" font-weight="700" font-size="92" transform="matrix(1 0 0 1 947.542 5483)">43.3/41.2</text><text font-family="Helvetica,Helvetica_MSFontService,sans-serif" font-weight="700" font-size="92" transform="matrix(1 0 0 1 387.147 5483)">24.0/17.7</text><text font-family="Helvetica,Helvetica_MSFontService,sans-serif" font-weight="700" font-size="92" transform="matrix(1 0 0 1 -173.247 5483)">34.5/34.4</text><text font-family="Helvetica,Helvetica_MSFontService,sans-serif" font-weight="700" font-size="92" transform="matrix(1 0 0 1 -733.642 5483)">31.3/30.8</text><text font-family="Helvetica,Helvetica_MSFontService,sans-serif" font-weight="400" font-size="92" transform="matrix(1 0 0 1 -1599.07 5483)">Ours</text></g></svg>